<svg xmlns="http://www.w3.org/2000/svg" width="34" height="34.001" viewBox="0 0 34 34.001">
  <g id="Lock" transform="translate(0 0)">
    <path id="Union_7" data-name="Union 7" d="M-4841.553-364a4.448,4.448,0,0,1-4.447-4.449v-25.1a4.448,4.448,0,0,1,4.447-4.449h25.1a4.448,4.448,0,0,1,4.448,4.449v25.1a4.448,4.448,0,0,1-4.448,4.449Z" transform="translate(4846 398)" fill="#2b7a78"/>
    <path id="Path_59390" data-name="Path 59390" d="M78.58,7.5H77.33V5.832a5.832,5.832,0,1,0-11.664,0V7.5h-1.25A.416.416,0,0,0,64,7.915V18.329a1.668,1.668,0,0,0,1.666,1.666H77.33A1.668,1.668,0,0,0,79,18.329V7.915A.416.416,0,0,0,78.58,7.5Zm-5.834,8.7a.417.417,0,0,1-.414.463H70.665a.417.417,0,0,1-.414-.463l.263-2.363a1.648,1.648,0,0,1-.682-1.34,1.666,1.666,0,0,1,3.333,0,1.648,1.648,0,0,1-.682,1.34Zm2.085-8.7H68.166V5.832a3.332,3.332,0,0,1,6.665,0Z" transform="translate(-54.498 7.003)" fill="#fff"/>
  </g>
</svg>
