<svg xmlns="http://www.w3.org/2000/svg" width="22" height="22" viewBox="0 0 22 22">
  <g id="Extra_Pages" data-name="Extra Pages" transform="translate(53.798 -143.007)">
    <rect id="Rectangle_15" data-name="Rectangle 15" width="22" height="22" transform="translate(-53.798 143.007)" fill="#fff" opacity="0"/>
    <path id="pages" d="M15.741.73,19.22,4.2H17.292a1.555,1.555,0,0,1-1.551-1.551ZM12.371,22H1.852A1.555,1.555,0,0,1,.3,20.45V5.217A1.555,1.555,0,0,1,1.852,3.666H8.69V6.318A2.585,2.585,0,0,0,11.275,8.9h2.652V20.45A1.56,1.56,0,0,1,12.371,22ZM13.2,7.868H11.275A1.555,1.555,0,0,1,9.724,6.318V4.395Zm5.19,10.468H14.955V8.375a.534.534,0,0,0-.15-.367L9.584,2.792l-.005-.005a.511.511,0,0,0-.372-.155H6.323V1.552A1.555,1.555,0,0,1,7.874,0h6.839V2.653A2.585,2.585,0,0,0,17.3,5.237h2.647V16.785a1.555,1.555,0,0,1-1.551,1.551Zm0,0" transform="translate(-52.92 143.006)" fill="#fff"/>
  </g>
</svg>
