<svg xmlns="http://www.w3.org/2000/svg" width="23" height="23" viewBox="0 0 23 23"><defs><style>.a,.b{fill:#0d1111;}.a{opacity:0;}</style></defs><g transform="translate(345.616 6.048)"><rect class="a" width="23" height="23" transform="translate(-345.616 -6.048)"/><path class="b" d="M3.685-218.048H-4.866a.751.751,0,0,1-.75-.75v-3.5a4.733,4.733,0,0,1,1.256-3.214,4.739,4.739,0,0,1,3.073-1.517c.133-.013.27-.019.407-.019H7.634c.136,0,.273.006.407.019a4.735,4.735,0,0,1,3.1,1.543H5.817a.87.87,0,0,0-.808.914v.795H4.516a1.158,1.158,0,0,0-1.03,1.247v3.746a1.423,1.423,0,0,0,.2.735Zm-.239-11a5.006,5.006,0,0,1-5-5,5.006,5.006,0,0,1,5-5,5.006,5.006,0,0,1,5,5A5.005,5.005,0,0,1,3.446-229.048Z" transform="translate(-340 233)"/><g transform="translate(-335.184 8.229)"><path class="b" d="M140.172,70.086H144.7v2.23h-4.524Zm0,0" transform="translate(-136.15 -67.589)"/><path class="b" d="M404.478,48.953h-.314v3.288h.314a.658.658,0,0,0,.657-.657V49.61a.658.658,0,0,0-.657-.657Zm0,0" transform="translate(-392.567 -47.063)"/><path class="b" d="M319.075.5h-1.246V6.723h1.246a.658.658,0,0,0,.657-.657V1.157A.658.658,0,0,0,319.075.5Zm0,0" transform="translate(-308.708 0)"/><path class="b" d="M53.836,1.157V6.066a.658.658,0,0,0,.657.657h1.246V.5H54.493a.658.658,0,0,0-.657.657Zm0,0" transform="translate(-52.291)"/><path class="b" d="M0,49.61v1.974a.658.658,0,0,0,.657.657H.971V48.953H.657A.658.658,0,0,0,0,49.61Zm0,0" transform="translate(0 -47.063)"/></g></g></svg>