<svg xmlns="http://www.w3.org/2000/svg" width="23" height="23" viewBox="0 0 23 23"><defs><style>.a,.b{fill:#0d1111;}.a{opacity:0;}</style></defs><g transform="translate(53.798 -143.007)"><rect class="a" width="22.977" height="23" transform="translate(-53.798 143.007)"/><path class="b" d="M15.512,10A11.517,11.517,0,0,0,4.822,25.763l.144.363H26.059l.144-.363A11.517,11.517,0,0,0,15.512,10Zm5.754,8.426L17.607,23a2.881,2.881,0,0,1,.782,1.975H17.239a1.726,1.726,0,1,0-3.452,0H12.636a2.877,2.877,0,0,1,4.028-2.638h0l3.682-4.607a.577.577,0,1,1,.921.7Zm2.877,3.669a.576.576,0,0,1-.575-.576A8.054,8.054,0,0,0,8.131,18.293a7.943,7.943,0,0,0-.673,3.225.575.575,0,1,1-1.151,0,9.107,9.107,0,0,1,.771-3.686,9.2,9.2,0,0,1,17.64,3.686A.576.576,0,0,1,24.143,22.094Z" transform="translate(-57.811 136.447)"/></g></svg>