<svg xmlns="http://www.w3.org/2000/svg" width="23" height="23.007" viewBox="0 0 23 23.007"><defs><style>.a,.b{fill:#fff;}.a{opacity:0;}</style></defs><g transform="translate(-18731 340)"><rect class="a" width="23" height="23" transform="translate(18731 -340)"/><g transform="translate(18731 -340)"><g transform="translate(0 0)"><path class="b" d="M31,8.793a.785.785,0,0,0,.142.451,3.964,3.964,0,0,1,1.3,0,.785.785,0,0,0,.142-.451.793.793,0,0,0-1.587,0Z" transform="translate(-18.703 -4.827)"/><path class="b" d="M.793,52.665A1.57,1.57,0,0,1,0,52.444v.617a.793.793,0,0,0,.793.793H11.9a.793.793,0,0,0,.793-.793v-.617a1.57,1.57,0,0,1-.793.221Z" transform="translate(0 -31.641)"/><path class="b" d="M9.4.793h3.927A.793.793,0,0,0,13.9.543L14.411,0h-6.1l.509.543A.8.8,0,0,0,9.4.793Z" transform="translate(-5.013 0)"/><path class="b" d="M24,16.57v4.363h7.14V16.57a3.57,3.57,0,1,0-7.14,0Z" transform="translate(-14.48 -7.843)"/><path class="b" d="M30.672,42.19A1.587,1.587,0,0,0,32.2,41H29.142a1.587,1.587,0,0,0,1.53,1.19Z" transform="translate(-17.582 -24.737)"/><path class="b" d="M10.746,16.263H7.933a.4.4,0,0,1-.4-.4v-1.19a1.587,1.587,0,0,1,1.19-1.53V8.727a4.367,4.367,0,0,1,2.916-4.111,1.578,1.578,0,0,1,1.05-2.179V.793A.793.793,0,0,0,11.9,0H10.485L9.468,1.085a1.591,1.591,0,0,1-1.157.5H4.383a1.593,1.593,0,0,1-1.157-.5L2.208,0H.793A.793.793,0,0,0,0,.793V19.437a.793.793,0,0,0,.793.793H11.9a.793.793,0,0,0,.793-.793V18.211A2.383,2.383,0,0,1,10.746,16.263ZM2.38,12.3a.4.4,0,0,1-.4-.4A5.559,5.559,0,0,1,7.537,6.347a.4.4,0,1,1,0,.793,4.765,4.765,0,0,0-4.76,4.76.4.4,0,0,1-.4.4Zm1.587,0a.4.4,0,0,1-.4-.4A3.971,3.971,0,0,1,7.537,7.933a.4.4,0,1,1,0,.793A3.177,3.177,0,0,0,4.363,11.9.4.4,0,0,1,3.967,12.3Zm1.983-.4a.4.4,0,0,1-.793,0,2.382,2.382,0,0,1,2.38-2.38.4.4,0,1,1,0,.793A1.587,1.587,0,0,0,5.95,11.9Z" transform="translate(0 0)"/><path class="b" d="M21,35.793v.793h9.52v-.793A.793.793,0,0,0,29.727,35H21.793A.793.793,0,0,0,21,35.793Z" transform="translate(-12.67 -21.117)"/><path class="b" d="M46.553,43a.4.4,0,0,0-.4.4,4.765,4.765,0,0,1-4.76,4.76.4.4,0,0,0,0,.793A5.559,5.559,0,0,0,46.95,43.4.4.4,0,0,0,46.553,43Z" transform="translate(-24.737 -25.943)"/><path class="b" d="M41.4,46.57a.4.4,0,1,0,0,.793A3.971,3.971,0,0,0,45.363,43.4a.4.4,0,0,0-.793,0A3.177,3.177,0,0,1,41.4,46.57Z" transform="translate(-24.737 -25.943)"/><path class="b" d="M41.4,44.983a.4.4,0,1,0,0,.793,2.382,2.382,0,0,0,2.38-2.38.4.4,0,1,0-.793,0A1.587,1.587,0,0,1,41.4,44.983Z" transform="translate(-24.737 -25.943)"/></g></g></g></svg>