<svg xmlns="http://www.w3.org/2000/svg" width="23" height="23" viewBox="0 0 23 23"><defs><style>.a,.b{fill:#0d1111;}.a{opacity:0;}</style></defs><g transform="translate(345.616 6.048)"><rect class="a" width="23" height="23" transform="translate(-345.616 -6.048)"/><g transform="translate(-345.616 -6.048)"><circle class="b" cx="5" cy="5" r="5" transform="translate(4.062)"/><path class="b" d="M11.534,20.8a2.507,2.507,0,0,1,.2-2.8,2.506,2.506,0,0,1-.2-2.8l.809-1.4a2.507,2.507,0,0,1,2.166-1.25,2.546,2.546,0,0,1,.361.026,2.6,2.6,0,0,1,.116-.237A4.717,4.717,0,0,0,13.25,12H4.75A4.756,4.756,0,0,0,0,16.75v3.5A.75.75,0,0,0,.75,21h10.9Z"/><path class="b" d="M21.7,18.469A3.634,3.634,0,0,0,21.75,18a3.8,3.8,0,0,0-.047-.469l.9-.682a.5.5,0,0,0,.131-.649l-.809-1.4a.5.5,0,0,0-.627-.211l-1.037.437a3.715,3.715,0,0,0-.819-.487l-.138-1.1a.5.5,0,0,0-.5-.438H17.192a.5.5,0,0,0-.5.438l-.138,1.1a3.731,3.731,0,0,0-.819.487L14.7,14.589a.5.5,0,0,0-.627.211l-.809,1.4a.5.5,0,0,0,.131.649l.9.682a3.634,3.634,0,0,0-.047.469,3.8,3.8,0,0,0,.047.469l-.9.682a.5.5,0,0,0-.131.649l.809,1.4a.5.5,0,0,0,.627.211l1.037-.438a3.715,3.715,0,0,0,.819.487l.138,1.1a.5.5,0,0,0,.5.438h1.617a.5.5,0,0,0,.5-.438l.138-1.1a3.731,3.731,0,0,0,.819-.487l1.037.437a.5.5,0,0,0,.627-.211l.809-1.4a.5.5,0,0,0-.131-.649ZM18,20a2,2,0,1,1,2-2A2,2,0,0,1,18,20Z" transform="translate(0.198)"/></g></g></svg>