<svg id="Unlock" xmlns="http://www.w3.org/2000/svg" width="34" height="34" viewBox="0 0 34 34">
  <path id="Union_5" data-name="Union 5" d="M-9692.552-463a4.447,4.447,0,0,1-4.448-4.449v-25.1a4.447,4.447,0,0,1,4.448-4.449h25.1a4.447,4.447,0,0,1,4.448,4.449v25.1a4.447,4.447,0,0,1-4.448,4.449Z" transform="translate(9697 497)" fill="#2b7a78"/>
  <path id="Union_8" data-name="Union 8" d="M-4829.42-477.005h-11.393a1.668,1.668,0,0,1-1.667-1.666v-10.414a.417.417,0,0,1,.416-.416h.147l-4.084-4.084,1.414-1.414,18.623,18.623-1.413,1.414Zm-6.545-6.158-.263,2.363a.417.417,0,0,0,.1.324.419.419,0,0,0,.31.139h1.666a.415.415,0,0,0,.31-.139.415.415,0,0,0,.1-.324l-.065-.584-2.823-2.823A1.642,1.642,0,0,0-4835.965-483.163Zm8.48,3.264-9.6-9.6h5.439v-1.667a3.336,3.336,0,0,0-3.333-3.332,3.337,3.337,0,0,0-3.333,3.332v.441l-2.221-2.221a5.816,5.816,0,0,1,5.553-4.052,5.839,5.839,0,0,1,5.833,5.832v1.667h1.249a.416.416,0,0,1,.416.416v9.188Z" transform="translate(4852 503)" fill="#fff"/>
</svg>
