<svg xmlns="http://www.w3.org/2000/svg" width="22.978" height="23" viewBox="0 0 22.978 23">
  <g id="Category_Management" data-name="Category Management" transform="translate(53.798 -143.007)">
    <rect id="Rectangle_15" data-name="Rectangle 15" width="22.977" height="23" transform="translate(-53.798 143.007)" fill="#fff" opacity="0"/>
    <g id="list" transform="translate(-53.798 145.368)">
      <path id="Path_84871" data-name="Path 84871" d="M0,0H5.084V5.084H0ZM0,0" fill="#fff"/>
      <path id="Path_84872" data-name="Path 84872" d="M149.3,0h16.277V5.084H149.3Zm0,0" transform="translate(-142.597)" fill="#fff"/>
      <path id="Path_84873" data-name="Path 84873" d="M0,147.008H5.084v5.084H0Zm0,0" transform="translate(0 -140.411)" fill="#fff"/>
      <path id="Path_84874" data-name="Path 84874" d="M149.3,147.008h16.277v5.084H149.3Zm0,0" transform="translate(-142.597 -140.411)" fill="#fff"/>
      <path id="Path_84875" data-name="Path 84875" d="M0,294.012H5.084V299.1H0Zm0,0" transform="translate(0 -280.817)" fill="#fff"/>
      <path id="Path_84876" data-name="Path 84876" d="M149.3,294.012h16.277V299.1H149.3Zm0,0" transform="translate(-142.597 -280.817)" fill="#fff"/>
    </g>
  </g>
</svg>
