<svg xmlns="http://www.w3.org/2000/svg" width="140" height="139.999" viewBox="0 0 140 139.999"><defs><style>.a{fill:#5d5d5d;}.b,.c{fill:#feffff;}.b{opacity:0;}.d{fill:#a1a1a1;}</style></defs><g transform="translate(-7.103 -0.028)"><path class="a" d="M-12692.9-193.973h-111a5,5,0,0,1-5-5v-130a5,5,0,0,1,5-5h130a5,5,0,0,1,5,5v111l-24,24Z" transform="translate(12816 334)"/><g transform="translate(43.762 36.449)"><rect class="b" width="66" height="66" transform="translate(0.342 0.578)"/><g transform="translate(8.159)"><path class="c" d="M7.5,6.117a3.447,3.447,0,0,1,3.571-3.472H25.753a3.447,3.447,0,0,1,3.571,3.472v3.8h2.645v-3.8A6.093,6.093,0,0,0,25.753,0H11.072A6.094,6.094,0,0,0,4.856,6.117v3.8H7.5Zm0,0" transform="translate(7.245)"/><path class="c" d="M7.228,55.012H38.506c3.016,0,5.356-2.653,5.356-5.952V8.226H1.871V49.061c0,3.3,2.34,5.952,5.357,5.952ZM31.3,14.541a1.323,1.323,0,0,1,2.645,0V45.787a1.323,1.323,0,1,1-2.645,0Zm-9.754,0a1.323,1.323,0,0,1,2.645,0V45.787a1.323,1.323,0,1,1-2.645,0Zm-9.754,0a1.323,1.323,0,0,1,2.645,0V45.787a1.323,1.323,0,1,1-2.645,0Zm0,0" transform="translate(2.791 12.274)"/><path class="c" d="M3.306,11.124h44.7a3.306,3.306,0,0,0,0-6.613H3.306a3.306,3.306,0,1,0,0,6.613Zm0,0" transform="translate(0 6.731)"/></g></g><path class="d" d="M19.005,24H0L24,0v19A5.005,5.005,0,0,1,19.005,24Z" transform="translate(147.104 140.027) rotate(180)"/></g></svg>