<svg xmlns="http://www.w3.org/2000/svg" width="22.978" height="23" viewBox="0 0 22.978 23">
  <g id="Payment_Management" data-name="Payment Management" transform="translate(53.798 -143.007)">
    <rect id="Rectangle_15" data-name="Rectangle 15" width="22.977" height="23" transform="translate(-53.798 143.007)" fill="#fff" opacity="0"/>
    <g id="money" transform="translate(-53.776 143.03)">
      <g id="Group_81419" data-name="Group 81419" transform="translate(0 13.54)">
        <g id="Group_81418" data-name="Group 81418">
          <path id="Path_84711" data-name="Path 84711" d="M2.062,302H.673a.672.672,0,0,0-.673.673v8.07a.672.672,0,0,0,.673.673h1.39A2.02,2.02,0,0,0,4.08,309.4v-5.38A2.02,2.02,0,0,0,2.062,302Z" transform="translate(0 -302)" fill="#fff"/>
        </g>
      </g>
      <g id="Group_81421" data-name="Group 81421" transform="translate(8.16)">
        <g id="Group_81420" data-name="Group 81420">
          <path id="Path_84712" data-name="Path 84712" d="M189.4,0a7.387,7.387,0,0,0-5.716,12.078,6,6,0,0,1,2.313,1.264.529.529,0,0,0,.336.108h2.394a2.623,2.623,0,0,1,2.219,1.184A7.4,7.4,0,0,0,189.4,0Zm.686,10.639h-.013v.794a.673.673,0,0,1-1.345,0v-.794a2.668,2.668,0,0,1-1.224-.874.668.668,0,1,1,1.022-.861c.363.43.767.592,1.1.471a.672.672,0,0,0-.229-1.3,2.015,2.015,0,0,1-.78-3.874c.027-.013.067-.013.108-.027V3.363a.673.673,0,0,1,1.345,0V4.17a2.645,2.645,0,0,1,1,.592.675.675,0,0,1-.942.968.91.91,0,0,0-.982-.3.671.671,0,0,0,.256,1.291,2.017,2.017,0,0,1,.686,3.914Z" transform="translate(-182)" fill="#fff"/>
        </g>
      </g>
      <g id="Group_81423" data-name="Group 81423" transform="translate(5.425 13.282)">
        <g id="Group_81422" data-name="Group 81422">
          <path id="Path_84713" data-name="Path 84713" d="M138.328,297.809a1.233,1.233,0,0,0-.309-.336,1.333,1.333,0,0,0-1.816.135l-3.053,3.524-.094.107a1.984,1.984,0,0,1-1.48.646h-5.264a.673.673,0,1,1,0-1.345h4.147a1.349,1.349,0,0,0,1.345-1.345v-.013a1.346,1.346,0,0,0-1.345-1.332h-2.479a1.851,1.851,0,0,1-1.184-.444,4.714,4.714,0,0,0-5.8-.309v8.272a15.526,15.526,0,0,0,4.089.551h6.044a4.714,4.714,0,0,0,3.766-1.883l3.228-4.3A1.781,1.781,0,0,0,138.328,297.809Z" transform="translate(-121 -296.246)" fill="#fff"/>
        </g>
      </g>
    </g>
  </g>
</svg>
