<svg xmlns="http://www.w3.org/2000/svg" width="22.977" height="23" viewBox="0 0 22.977 23"><defs><style>.a{fill:#fff;opacity:0;}.b{fill:#feffff;}</style></defs><g transform="translate(53.798 -143.007)"><rect class="a" width="22.977" height="23" transform="translate(-53.798 143.007)"/><g transform="translate(-53.798 142.007)"><path class="b" d="M0,10.648V7.282A2.022,2.022,0,0,1,2.02,5.263H3.492a2.662,2.662,0,1,1,1.141,0H6.058a2.022,2.022,0,0,1,2.02,2.019v3.366Z" transform="translate(0 13.049)"/><path class="b" d="M0,10.648V7.282A2.022,2.022,0,0,1,2.02,5.263H3.444a2.662,2.662,0,1,1,1.141,0H6.058a2.022,2.022,0,0,1,2.02,2.019v3.366Z" transform="translate(14.899 13.049)"/><path class="b" d="M0,10.58V7.125a2.022,2.022,0,0,1,2.02-2.02h.9A2.663,2.663,0,0,1,1.237,2.662,2.735,2.735,0,0,1,4.039,0a2.735,2.735,0,0,1,2.8,2.662A2.663,2.663,0,0,1,5.154,5.105h.9a2.022,2.022,0,0,1,2.02,2.02V10.58Z" transform="translate(7.45 1)"/><path class="b" d="M203.242,272H201.9v3.314l-1.837,1.06.673,1.166,1.837-1.061,1.837,1.061.673-1.166-1.837-1.06Z" transform="translate(-191.08 -259.073)"/></g></g></svg>