<svg xmlns="http://www.w3.org/2000/svg" width="140" height="139.999" viewBox="0 0 140 139.999"><defs><style>.a{fill:#3aafa9;}.b{fill:#2b7a78;}.c{fill:#fff;}</style></defs><g transform="translate(-324 -255)"><g transform="translate(316.896 254.973)"><path class="a" d="M-12692.9-193.973h-111a5,5,0,0,1-5-5v-130a5,5,0,0,1,5-5h130a5,5,0,0,1,5,5v111l-24,24Z" transform="translate(12816 333.999)"/><path class="b" d="M19.005,24H0L24,0v19A5.005,5.005,0,0,1,19.005,24Z" transform="translate(147.104 140.027) rotate(180)"/></g><path class="c" d="M112.492,24.939h-4.156V19.4a19.4,19.4,0,1,0-38.793,0v5.542H65.386A1.385,1.385,0,0,0,64,26.324V60.961A5.547,5.547,0,0,0,69.542,66.5h38.794a5.547,5.547,0,0,0,5.542-5.542V26.324A1.385,1.385,0,0,0,112.492,24.939Zm-19.4,28.942a1.386,1.386,0,0,1-1.377,1.538H86.168a1.386,1.386,0,0,1-1.377-1.538l.874-7.86A5.481,5.481,0,0,1,83.4,41.564a5.542,5.542,0,0,1,11.084,0,5.481,5.481,0,0,1-2.268,4.457Zm6.935-28.942H77.855V19.4a11.084,11.084,0,0,1,22.168,0Z" transform="translate(305 292)"/><path class="a" d="M-.825-5.681,19,0V11H0Z" transform="translate(371 306)"/></g></svg>