<svg xmlns="http://www.w3.org/2000/svg" width="149.121" height="86.364" viewBox="0 0 149.121 86.364"><defs><style>.a{fill:#17242b;}.b{fill:#2b7a77;}</style></defs><g transform="translate(-735.049 -1469.57)"><g transform="translate(753.585 1469.57)"><path class="a" d="M1074.118,1469.57a30.98,30.98,0,0,0-21.951,9.077,36.28,36.28,0,0,1,6.385,11.293,18.908,18.908,0,0,1,34.015,14.862l7.977,12.263a31.1,31.1,0,0,0-26.425-47.494Zm15.929,41.277s0,.005,0,.007v0l7.022,10.8s0-.005.005-.008Z" transform="translate(-993.025 -1469.57)"/><path class="b" d="M925.982,1531.546H911.79l-1.819-2.8a31.1,31.1,0,0,1-44.465-28.082,18.9,18.9,0,0,0-37.808,0v20.24a12.243,12.243,0,0,1-12.19,10.856v-31.1a31.1,31.1,0,1,1,62.191,0,18.91,18.91,0,0,0,25.525,17.708l-9.264-14.244h14.19l4.376,6.725v0l7.022,10.8Z" transform="translate(-815.507 -1469.57)"/><path class="b" d="M1204.06,1635.277h-.01l-6.435-9.894-7.022-10.8v0l-4.376-6.725h.01l4.371,6.717,7.022,10.8Z" transform="translate(-1093.575 -1573.301)"/><path class="b" d="M1204.06,1635.277h-.01l-6.435-9.894-7.022-10.8v0l-4.376-6.725h.01l4.371,6.717,7.022,10.8Z" transform="translate(-1093.575 -1573.301)"/></g><path class="a" d="M3.677-12.919v8.2H1.84V-16.363H3.283l6.657,8.4v-8.379h1.853V-4.721H10.268ZM30.6-6.344v1.623H22.616V-16.363h7.838v1.623h-6v3.312h5.2V-9.9h-5.2v3.558Zm14.955.049a2.943,2.943,0,0,0,1.525-.361,2.878,2.878,0,0,0,.976-.943,3.974,3.974,0,0,0,.525-1.328,7.481,7.481,0,0,0,.156-1.533v-5.9H50.59v5.9a8.817,8.817,0,0,1-.279,2.255,5.2,5.2,0,0,1-.885,1.853A4.229,4.229,0,0,1,47.86-5.1a5.3,5.3,0,0,1-2.3.459A5.187,5.187,0,0,1,43.2-5.122a4.237,4.237,0,0,1-1.55-1.3A5.324,5.324,0,0,1,40.8-8.279a8.959,8.959,0,0,1-.262-2.181v-5.9h1.837v5.9a7.564,7.564,0,0,0,.156,1.55,3.975,3.975,0,0,0,.525,1.328,2.784,2.784,0,0,0,.984.935A3.008,3.008,0,0,0,45.556-6.295ZM61.233-4.721V-16.363H66.3a3.232,3.232,0,0,1,1.451.328,3.714,3.714,0,0,1,1.14.861,4.059,4.059,0,0,1,.746,1.213,3.721,3.721,0,0,1,.271,1.386,3.881,3.881,0,0,1-.164,1.131,3.967,3.967,0,0,1-.459,1,3.229,3.229,0,0,1-.722.8,2.973,2.973,0,0,1-.935.5l2.738,4.427H68.284l-2.525-4.05H63.069v4.05Zm1.837-5.674h3.214A1.48,1.48,0,0,0,67-10.566a1.688,1.688,0,0,0,.549-.476,2.4,2.4,0,0,0,.361-.7,2.628,2.628,0,0,0,.131-.836,2.251,2.251,0,0,0-.156-.836,2.4,2.4,0,0,0-.41-.689,1.942,1.942,0,0,0-.59-.467,1.51,1.51,0,0,0-.7-.172H63.069ZM85.108-4.639a5.109,5.109,0,0,1-2.271-.5,5.658,5.658,0,0,1-1.763-1.328,6,6,0,0,1-1.14-1.894,6.136,6.136,0,0,1-.4-2.181,5.95,5.95,0,0,1,.426-2.23,6.191,6.191,0,0,1,1.172-1.886,5.6,5.6,0,0,1,1.771-1.3,5.177,5.177,0,0,1,2.238-.484,4.974,4.974,0,0,1,2.271.517,5.716,5.716,0,0,1,1.755,1.353A6.209,6.209,0,0,1,90.3-12.682a6.027,6.027,0,0,1,.4,2.156,6.052,6.052,0,0,1-.418,2.23,5.889,5.889,0,0,1-1.172,1.878,5.759,5.759,0,0,1-1.779,1.3A5.139,5.139,0,0,1,85.108-4.639Zm-3.706-5.9a4.9,4.9,0,0,0,.262,1.591A4.323,4.323,0,0,0,82.41-7.59a3.647,3.647,0,0,0,1.172.943,3.333,3.333,0,0,0,1.541.353,3.234,3.234,0,0,0,1.566-.369,3.684,3.684,0,0,0,1.156-.976A4.4,4.4,0,0,0,88.568-9a4.942,4.942,0,0,0,.246-1.541,4.879,4.879,0,0,0-.262-1.6,4.24,4.24,0,0,0-.746-1.345,3.726,3.726,0,0,0-1.164-.935,3.248,3.248,0,0,0-1.517-.353,3.282,3.282,0,0,0-1.574.369,3.752,3.752,0,0,0-1.164.959,4.3,4.3,0,0,0-.73,1.353A4.871,4.871,0,0,0,81.4-10.542Zm27.269,4.969a5.588,5.588,0,0,1-1.418.689,5.229,5.229,0,0,1-1.615.246,5.04,5.04,0,0,1-2.271-.508A5.831,5.831,0,0,1,101.6-6.475a5.9,5.9,0,0,1-1.14-1.886,6.136,6.136,0,0,1-.4-2.181,5.95,5.95,0,0,1,.426-2.23,6.191,6.191,0,0,1,1.172-1.886,5.6,5.6,0,0,1,1.771-1.3,5.177,5.177,0,0,1,2.238-.484,4.974,4.974,0,0,1,2.271.517,5.716,5.716,0,0,1,1.755,1.353,6.209,6.209,0,0,1,1.131,1.894,6.027,6.027,0,0,1,.4,2.156,5.966,5.966,0,0,1-.41,2.205,6.1,6.1,0,0,1-1.148,1.861L111.2-4.721h-1.771Zm-3.017-.722a3.412,3.412,0,0,0,1.017-.148,3.343,3.343,0,0,0,.869-.41l-1.656-1.919h1.771l.836.967a4.115,4.115,0,0,0,.64-1.287,5.042,5.042,0,0,0,.213-1.451,4.879,4.879,0,0,0-.262-1.6,4.342,4.342,0,0,0-.746-1.353,3.675,3.675,0,0,0-1.164-.943,3.248,3.248,0,0,0-1.517-.353,3.281,3.281,0,0,0-1.574.369,3.7,3.7,0,0,0-1.164.967,4.408,4.408,0,0,0-.73,1.361,4.871,4.871,0,0,0-.254,1.55,4.9,4.9,0,0,0,.262,1.591,4.323,4.323,0,0,0,.746,1.361,3.647,3.647,0,0,0,1.172.943A3.333,3.333,0,0,0,105.654-6.295Zm20.5,0a2.943,2.943,0,0,0,1.525-.361,2.878,2.878,0,0,0,.976-.943,3.974,3.974,0,0,0,.525-1.328,7.481,7.481,0,0,0,.156-1.533v-5.9h1.853v5.9a8.818,8.818,0,0,1-.279,2.255,5.2,5.2,0,0,1-.885,1.853A4.229,4.229,0,0,1,128.455-5.1a5.3,5.3,0,0,1-2.3.459,5.187,5.187,0,0,1-2.353-.484,4.237,4.237,0,0,1-1.55-1.3,5.324,5.324,0,0,1-.853-1.861,8.959,8.959,0,0,1-.262-2.181v-5.9h1.837v5.9a7.564,7.564,0,0,0,.156,1.55,3.975,3.975,0,0,0,.525,1.328,2.784,2.784,0,0,0,.984.935A3.008,3.008,0,0,0,126.151-6.295Zm15.676,1.574V-16.363h5.067a3.232,3.232,0,0,1,1.451.328,3.714,3.714,0,0,1,1.14.861,4.059,4.059,0,0,1,.746,1.213,3.721,3.721,0,0,1,.271,1.386,3.88,3.88,0,0,1-.164,1.131,3.967,3.967,0,0,1-.459,1,3.229,3.229,0,0,1-.721.8,2.974,2.974,0,0,1-.935.5l2.738,4.427h-2.083l-2.525-4.05h-2.689v4.05Zm1.837-5.674h3.214a1.48,1.48,0,0,0,.713-.172,1.688,1.688,0,0,0,.549-.476,2.4,2.4,0,0,0,.361-.7,2.627,2.627,0,0,0,.131-.836,2.251,2.251,0,0,0-.156-.836,2.4,2.4,0,0,0-.41-.689,1.943,1.943,0,0,0-.59-.467,1.51,1.51,0,0,0-.7-.172h-3.116Z" transform="translate(733.209 1560.573)"/></g></svg>