<svg xmlns="http://www.w3.org/2000/svg" width="34" height="34" viewBox="0 0 34 34"><defs><style>.a{fill:#feffff;}.b{fill:#2b7a78;}</style></defs><rect class="a" width="26" height="26.182" transform="translate(4.591 4)"/><path class="b" d="M34,4.448A4.448,4.448,0,0,0,29.552,0H4.448A4.448,4.448,0,0,0,0,4.448v25.1A4.448,4.448,0,0,0,4.448,34h25.1A4.448,4.448,0,0,0,34,29.552ZM7.632,27.763A.99.99,0,0,1,6.419,26.55L7.64,22l4.545,4.545ZM27.26,11.2,13.809,24.655,9.285,20.131,22.736,6.68a1.633,1.633,0,0,1,2.31,0L27.26,8.894A1.633,1.633,0,0,1,27.26,11.2Z"/></svg>