<svg xmlns="http://www.w3.org/2000/svg" width="106.204" height="59.97" viewBox="0 0 106.204 59.97"><defs><style>.a{fill:#20605e;}</style></defs><g transform="translate(0 -111.445)"><g transform="translate(30.604 146.833)"><g transform="translate(0 0)"><path class="a" d="M183.048,284.331a18.687,18.687,0,0,0-8.986-2.286h-7.735a18.783,18.783,0,0,0-18.787,18.787v5.8h45.309v-5.8A18.78,18.78,0,0,0,183.048,284.331Z" transform="translate(-147.54 -282.045)"/></g></g><g transform="translate(70.854 141.684)"><g transform="translate(0 0)"><path class="a" d="M358.2,257.225h-6.43a18.6,18.6,0,0,0-10.189,3.022,25.057,25.057,0,0,1,11.282,20.913v2.726H376.93v-7.93A18.753,18.753,0,0,0,358.2,257.225Z" transform="translate(-341.58 -257.225)"/></g></g><g transform="translate(0 141.684)"><g transform="translate(0 0)"><path class="a" d="M25.161,257.225h-6.43A18.753,18.753,0,0,0,0,275.956v7.93H24.381V281.16a25.07,25.07,0,0,1,11.127-20.809A18.609,18.609,0,0,0,25.161,257.225Z" transform="translate(0 -257.225)"/></g></g><g transform="translate(71.633 113.513)"><g transform="translate(0 0)"><path class="a" d="M357.952,121.416h-.1c-6.961.057-12.575,6.074-12.514,13.411.06,7.3,5.718,13.2,12.634,13.2h.1a12.222,12.222,0,0,0,8.969-4.049,13.612,13.612,0,0,0,3.546-9.362C370.525,127.317,364.868,121.416,357.952,121.416Z" transform="translate(-345.337 -121.416)"/></g></g><g transform="translate(9.321 113.513)"><g transform="translate(0 0)"><path class="a" d="M57.553,121.416h-.1c-6.961.057-12.575,6.074-12.514,13.411.06,7.3,5.718,13.2,12.634,13.2h.1a12.222,12.222,0,0,0,8.969-4.049,13.61,13.61,0,0,0,3.546-9.362C70.126,127.317,64.469,121.416,57.553,121.416Z" transform="translate(-44.938 -121.416)"/></g></g><g transform="translate(38.706 111.445)"><g transform="translate(0 0)"><path class="a" d="M201.153,111.445c-8.025,0-14.553,6.9-14.553,15.377a15.476,15.476,0,0,0,8.332,13.9,13.84,13.84,0,0,0,12.442,0,15.476,15.476,0,0,0,8.332-13.9C215.707,118.342,209.179,111.445,201.153,111.445Z" transform="translate(-186.6 -111.445)"/></g></g></g></svg>