<svg xmlns="http://www.w3.org/2000/svg" width="34" height="34" viewBox="0 0 34 34"><defs><style>.a{fill:#2b7a78;}.b{fill:#feffff;}</style></defs><g transform="translate(0 0)"><path class="a" d="M-4747.552-364a4.448,4.448,0,0,1-4.448-4.448v-25.1a4.448,4.448,0,0,1,4.448-4.448h25.1a4.447,4.447,0,0,1,4.447,4.448v25.1a4.447,4.447,0,0,1-4.447,4.447Z" transform="translate(4752 398)"/><g transform="translate(8.201 5.397)"><path class="b" d="M74.108,2.1A1.185,1.185,0,0,1,75.336.909h5.045A1.185,1.185,0,0,1,81.608,2.1V3.409h.909V2.1A2.094,2.094,0,0,0,80.381,0H75.336A2.094,2.094,0,0,0,73.2,2.1V3.409h.909Zm0,0" transform="translate(-69.04)"/><path class="b" d="M30.04,140.079H40.789a1.936,1.936,0,0,0,1.841-2.045V124H28.2v14.033a1.936,1.936,0,0,0,1.841,2.045Zm8.272-13.909a.455.455,0,1,1,.909,0v10.738a.455.455,0,0,1-.909,0Zm-3.352,0a.455.455,0,1,1,.909,0v10.738a.455.455,0,0,1-.909,0Zm-3.352,0a.455.455,0,1,1,.909,0v10.738a.455.455,0,0,1-.909,0Zm0,0" transform="translate(-26.597 -116.955)"/><path class="b" d="M1.136,70.273H16.5A1.136,1.136,0,0,0,16.5,68H1.136a1.136,1.136,0,0,0,0,2.273Zm0,0" transform="translate(0 -64.137)"/></g></g></svg>