<svg xmlns="http://www.w3.org/2000/svg" width="198.726" height="27.892" viewBox="0 0 198.726 27.892"><defs><style>.a{fill:#feffff;}</style></defs><g transform="translate(-62.637 -24)"><path class="a" d="M3.488-13.281v7.357H1.84V-16.371H3.135L9.109-8.837v-7.519h1.663V-5.924H9.4Zm24.162,5.9v1.457H20.484V-16.371h7.034v1.457H22.132v2.972H26.8v1.368H22.132v3.193Zm13.42.044a2.641,2.641,0,0,0,1.368-.324,2.583,2.583,0,0,0,.876-.846A3.567,3.567,0,0,0,43.785-9.7a6.713,6.713,0,0,0,.14-1.376v-5.3h1.663v5.3a7.912,7.912,0,0,1-.25,2.023,4.67,4.67,0,0,1-.795,1.663,3.8,3.8,0,0,1-1.405,1.126,4.753,4.753,0,0,1-2.067.412,4.655,4.655,0,0,1-2.112-.434,3.8,3.8,0,0,1-1.391-1.162,4.777,4.777,0,0,1-.765-1.67,8.04,8.04,0,0,1-.235-1.957v-5.3h1.648v5.3a6.788,6.788,0,0,0,.14,1.391,3.567,3.567,0,0,0,.471,1.192,2.5,2.5,0,0,0,.883.839A2.7,2.7,0,0,0,41.07-7.336ZM55.138-5.924V-16.371h4.547a2.9,2.9,0,0,1,1.3.294,3.333,3.333,0,0,1,1.023.773,3.642,3.642,0,0,1,.67,1.089,3.339,3.339,0,0,1,.243,1.243,3.482,3.482,0,0,1-.147,1.015,3.559,3.559,0,0,1-.412.9,2.9,2.9,0,0,1-.647.714,2.668,2.668,0,0,1-.839.449l2.457,3.973H61.465L59.2-9.558H56.786v3.635Zm1.648-5.091H59.67a1.328,1.328,0,0,0,.64-.155A1.515,1.515,0,0,0,60.8-11.6a2.158,2.158,0,0,0,.324-.625,2.358,2.358,0,0,0,.118-.75,2.02,2.02,0,0,0-.14-.75,2.152,2.152,0,0,0-.368-.618,1.743,1.743,0,0,0-.53-.419,1.355,1.355,0,0,0-.625-.155h-2.8ZM76.563-5.85A4.584,4.584,0,0,1,74.525-6.3a5.078,5.078,0,0,1-1.582-1.192,5.384,5.384,0,0,1-1.023-1.7,5.507,5.507,0,0,1-.361-1.957,5.339,5.339,0,0,1,.383-2,5.556,5.556,0,0,1,1.052-1.692,5.025,5.025,0,0,1,1.589-1.17,4.646,4.646,0,0,1,2.009-.434,4.463,4.463,0,0,1,2.038.464A5.129,5.129,0,0,1,80.2-14.767a5.572,5.572,0,0,1,1.015,1.7,5.409,5.409,0,0,1,.361,1.935,5.431,5.431,0,0,1-.375,2,5.284,5.284,0,0,1-1.052,1.685,5.168,5.168,0,0,1-1.6,1.162A4.612,4.612,0,0,1,76.563-5.85Zm-3.326-5.3a4.4,4.4,0,0,0,.235,1.427,3.88,3.88,0,0,0,.67,1.221,3.273,3.273,0,0,0,1.052.846,2.991,2.991,0,0,0,1.383.316,2.9,2.9,0,0,0,1.405-.331,3.306,3.306,0,0,0,1.037-.876,3.946,3.946,0,0,0,.647-1.221,4.435,4.435,0,0,0,.221-1.383,4.378,4.378,0,0,0-.235-1.435,3.8,3.8,0,0,0-.67-1.207,3.343,3.343,0,0,0-1.045-.839,2.914,2.914,0,0,0-1.361-.316,2.945,2.945,0,0,0-1.413.331,3.366,3.366,0,0,0-1.045.861,3.863,3.863,0,0,0-.655,1.214A4.371,4.371,0,0,0,73.237-11.148ZM97.708-6.689a5.015,5.015,0,0,1-1.273.618,4.693,4.693,0,0,1-1.449.221,4.523,4.523,0,0,1-2.038-.456A5.232,5.232,0,0,1,91.366-7.5a5.3,5.3,0,0,1-1.023-1.692,5.507,5.507,0,0,1-.361-1.957,5.339,5.339,0,0,1,.383-2,5.556,5.556,0,0,1,1.052-1.692,5.026,5.026,0,0,1,1.589-1.17,4.646,4.646,0,0,1,2.009-.434,4.463,4.463,0,0,1,2.038.464,5.129,5.129,0,0,1,1.575,1.214,5.571,5.571,0,0,1,1.015,1.7A5.408,5.408,0,0,1,100-11.133a5.354,5.354,0,0,1-.368,1.979,5.471,5.471,0,0,1-1.03,1.67l1.368,1.56H98.385ZM95-7.336a3.062,3.062,0,0,0,.912-.132,3,3,0,0,0,.78-.368L95.207-9.558H96.8l.75.868a3.693,3.693,0,0,0,.574-1.155,4.525,4.525,0,0,0,.191-1.3,4.379,4.379,0,0,0-.235-1.435,3.9,3.9,0,0,0-.67-1.214,3.3,3.3,0,0,0-1.045-.846A2.914,2.914,0,0,0,95-14.959a2.945,2.945,0,0,0-1.413.331,3.322,3.322,0,0,0-1.045.868,3.955,3.955,0,0,0-.655,1.221,4.371,4.371,0,0,0-.228,1.391A4.4,4.4,0,0,0,91.9-9.72a3.879,3.879,0,0,0,.67,1.221,3.272,3.272,0,0,0,1.052.846A2.991,2.991,0,0,0,95-7.336Zm18.394,0a2.641,2.641,0,0,0,1.368-.324,2.583,2.583,0,0,0,.876-.846,3.566,3.566,0,0,0,.471-1.192,6.713,6.713,0,0,0,.14-1.376v-5.3h1.663v5.3a7.913,7.913,0,0,1-.25,2.023,4.67,4.67,0,0,1-.795,1.663,3.8,3.8,0,0,1-1.405,1.126,4.753,4.753,0,0,1-2.067.412,4.655,4.655,0,0,1-2.112-.434,3.8,3.8,0,0,1-1.391-1.162,4.777,4.777,0,0,1-.765-1.67,8.039,8.039,0,0,1-.235-1.957v-5.3h1.648v5.3a6.788,6.788,0,0,0,.14,1.391,3.567,3.567,0,0,0,.471,1.192,2.5,2.5,0,0,0,.883.839A2.7,2.7,0,0,0,113.394-7.336Zm14.068,1.413V-16.371h4.547a2.9,2.9,0,0,1,1.3.294,3.333,3.333,0,0,1,1.023.773,3.642,3.642,0,0,1,.67,1.089,3.339,3.339,0,0,1,.243,1.243,3.481,3.481,0,0,1-.147,1.015,3.558,3.558,0,0,1-.412.9,2.9,2.9,0,0,1-.647.714,2.669,2.669,0,0,1-.839.449l2.457,3.973h-1.869l-2.266-3.635H129.11v3.635Zm1.648-5.091h2.884a1.328,1.328,0,0,0,.64-.155,1.515,1.515,0,0,0,.493-.427,2.158,2.158,0,0,0,.324-.625,2.358,2.358,0,0,0,.118-.75,2.02,2.02,0,0,0-.14-.75,2.151,2.151,0,0,0-.368-.618,1.743,1.743,0,0,0-.53-.419,1.355,1.355,0,0,0-.625-.155h-2.8Z" transform="translate(125.705 49.445)"/><g transform="translate(-686.562 -1445.57)"><g transform="translate(749.199 1469.57)"><path class="a" d="M1062.012,1469.57a13.893,13.893,0,0,0-9.845,4.071,16.266,16.266,0,0,1,2.864,5.065,8.48,8.48,0,0,1,15.255,6.665l3.577,5.5a13.949,13.949,0,0,0-11.851-21.3Zm7.144,18.512,0,0h0l3.149,4.842,0,0Z" transform="translate(-1025.642 -1469.57)"/><path class="a" d="M865.053,1497.365h-6.365l-.816-1.255a13.948,13.948,0,0,1-19.942-12.594,8.478,8.478,0,0,0-16.956,0v9.077a5.491,5.491,0,0,1-5.467,4.869v-13.946a13.946,13.946,0,1,1,27.892,0,8.481,8.481,0,0,0,11.448,7.942l-4.155-6.388h6.364l1.963,3.016h0l3.149,4.842Z" transform="translate(-815.507 -1469.57)"/><path class="a" d="M1194.219,1620.156h0l-2.886-4.437-3.15-4.842h0l-1.962-3.016h0l1.96,3.013,3.149,4.843Z" transform="translate(-1144.668 -1592.36)"/><path class="a" d="M1194.219,1620.156h0l-2.886-4.437-3.15-4.842h0l-1.962-3.016h0l1.96,3.013,3.149,4.843Z" transform="translate(-1144.668 -1592.36)"/></g></g></g></svg>