<svg xmlns="http://www.w3.org/2000/svg" width="122" height="122" viewBox="0 0 122 122"><defs><style>.a,.b,.c{fill:none;}.b,.c{stroke:#3aafa9;stroke-linecap:round;stroke-miterlimit:10;stroke-width:3px;}.b{stroke-linejoin:round;}</style></defs><g transform="translate(-0.322)"><rect class="a" width="122" height="122" transform="translate(0.322)"/><path class="b" d="M76.766,77.533H99A19.312,19.312,0,1,0,99,38.91c-.049,0-.093.007-.142.007A29.667,29.667,0,0,0,41.588,24.954,14.683,14.683,0,0,0,16.512,35.327c0,.208.024.408.032.613A21.178,21.178,0,0,0,22.19,77.533H42.549" transform="translate(1.343 7.907)"/><path class="c" d="M20,35.22,32.22,23,44.44,35.22" transform="translate(28.78 33.112)"/><line class="c" y1="48.067" transform="translate(61 56.926)"/></g></svg>