<svg xmlns="http://www.w3.org/2000/svg" width="34" height="34" viewBox="0 0 34 34">
  <g id="Edit" transform="translate(-544 -230)">
    <circle id="Ellipse_5065" data-name="Ellipse 5065" cx="17" cy="17" r="17" transform="translate(544 230)" fill="#2b7a78"/>
    <path id="Subtraction_16" data-name="Subtraction 16" d="M10685.87-5318.2a.992.992,0,0,1-.783-.392.976.976,0,0,1-.167-.856l1.22-4.555,4.547,4.546-4.555,1.221A1,1,0,0,1,10685.87-5318.2Zm6.438-3.143h0l-4.521-4.521,13.451-13.453a1.62,1.62,0,0,1,1.153-.479,1.623,1.623,0,0,1,1.155.479l2.216,2.215a1.636,1.636,0,0,1,0,2.309l-13.452,13.45Z" transform="translate(-10134.885 5575.799)" fill="#feffff"/>
  </g>
</svg>
