<svg xmlns="http://www.w3.org/2000/svg" width="34" height="34" viewBox="0 0 34 34"><defs><style>.a{fill:#bfbfbf;opacity:0.5;}.b{fill:#0d1111;}</style></defs><g transform="translate(0 0)"><path class="a" d="M-4629.552,118a4.447,4.447,0,0,1-4.447-4.447v-25.1A4.448,4.448,0,0,1-4629.552,84h25.105A4.448,4.448,0,0,1-4600,88.448v25.1a4.448,4.448,0,0,1-4.449,4.447Z" transform="translate(4634 -84)"/><path class="b" d="M-4626.629,111.8a1,1,0,0,1-.783-.391.98.98,0,0,1-.169-.857l1.221-4.554,4.545,4.545-4.553,1.222A1.007,1.007,0,0,1-4626.629,111.8Zm6.438-3.144h0l-4.523-4.523,13.451-13.451a1.623,1.623,0,0,1,1.156-.478,1.622,1.622,0,0,1,1.154.478l2.215,2.214a1.635,1.635,0,0,1,0,2.31l-13.452,13.45Z" transform="translate(4634 -84)"/></g></svg>