<svg xmlns="http://www.w3.org/2000/svg" width="80.138" height="80" viewBox="0 0 80.138 80"><defs><style>.a,.b{fill:#bfbfbf;}.a{opacity:0;}</style></defs><rect class="a" width="80" height="80" transform="translate(0.138)"/><path class="b" d="M92.131,340.613a5.729,5.729,0,0,1-5.523-4.229c-.023-.087-.023-.172-.041-.259l-15.736-8.5a2.8,2.8,0,0,0-1.4-.371,2.946,2.946,0,0,0-.548.051,2.684,2.684,0,0,0-.714.232,2.8,2.8,0,0,0-1.227,1.133,2.9,2.9,0,0,0-.383,1.429,2.84,2.84,0,0,0,1.42,2.48l26.044,15.585a4.3,4.3,0,0,0,2.276.654h20.128a4.3,4.3,0,0,0,1.572-.3l5.246-2.072v-15.39l-5.107-3.058a4.284,4.284,0,0,0-2.2-.609H110.46a9.991,9.991,0,0,0-2.582.34l-16.49,4.412a2.888,2.888,0,0,0-2.1,2.52v.467a2.609,2.609,0,0,0,.083.529,2.857,2.857,0,0,0,2.764,2.1c.174-.015,1.014-.186,1.666-.336l14.794-3.959.737,2.76-14.842,3.971a13.97,13.97,0,0,1-2.354.421Zm0,0" transform="translate(-54.673 -268.812)"/><path class="b" d="M400,320h8.571v22.857H400Zm0,0" transform="translate(-328.571 -262.857)"/><path class="b" d="M0,0H8.571V25.714H0ZM0,0"/><path class="b" d="M68.874,22.48a12.883,12.883,0,0,0,6.554,2.137v-6.9a10.388,10.388,0,0,1-2.92-1.64l-.837-.679,1.8-2.22.829.671a7.572,7.572,0,0,0,9.629-.142l1-.857,8.428,8.428a2.865,2.865,0,1,0,4.043-4.06L87.319,7.124,89.338,5.1l3.468,3.467h11.788L98.951,2.928A9.932,9.932,0,0,0,91.88,0H73.92A4.288,4.288,0,0,0,72,.453l-3.2,1.6a7.172,7.172,0,0,1-3.454.748L64,2.755V21.429h3.285Zm0,0" transform="translate(-52.571 0)"/><path class="b" d="M144,70.884V95.429h54.286V64H161.377l2.857,2.857h24.051v1.429A5.715,5.715,0,0,0,194,74h1.429V85.429H194a5.715,5.715,0,0,0-5.714,5.714v1.429H154V91.143a5.715,5.715,0,0,0-5.714-5.714h-1.429V74h1.429a5.7,5.7,0,0,0,4.587-2.321l-2.437-2.437A10.39,10.39,0,0,1,144,70.884Zm0,0" transform="translate(-118.286 -52.571)"/><path class="b" d="M187.388,103.813a5.714,5.714,0,0,1-4.037-1.656L181.2,100a8.528,8.528,0,0,1-5.2,3.025v5.951A8.6,8.6,0,0,1,183.024,116h28.809a8.6,8.6,0,0,1,7.024-7.024v-5.951A8.6,8.6,0,0,1,211.832,96H192.7a5.617,5.617,0,0,1-.468,5.128,7.141,7.141,0,1,1-.812,1.036,5.752,5.752,0,0,1-4.034,1.649Zm0,0" transform="translate(-144.571 -78.857)"/><path class="b" d="M280.571,132.286A4.286,4.286,0,1,1,276.286,128,4.286,4.286,0,0,1,280.571,132.286Zm0,0" transform="translate(-223.429 -105.143)"/></svg>