<svg xmlns="http://www.w3.org/2000/svg" width="124.321" height="85.775" viewBox="0 0 124.321 85.775"><defs><style>.a{fill:#0d1111;}</style></defs><g transform="translate(-125 -14.833)"><g transform="translate(125 15)"><path class="a" d="M95.72,85.608V81.1h1.2V70.1h-1.2V65.615h14.712V70.9H105.92V70.1h-3.5v3.264h.816v-.792h4.487v6.071h-4.487v-.792h-.816V81.1h3.5V80.3h4.513v5.3Zm-8.112,0V78.143l-.648-.648H84.225v3.6h1.2v4.513h-7.9V81.1h1.2V70.1h-1.2V65.615H89.913L93.1,68.808V73.92l-1.319,1.32L93.1,76.559V81.1h1.2v4.513Zm-3.384-12.6h2.736l.648-.648V70.752l-.648-.648H84.225Zm-20.256,12.6-3.192-3.192V68.808l3.192-3.192h8.808l3.191,3.192V82.416l-3.191,3.192Zm2.3-14.856v9.72l.648.624h2.928l.625-.624v-9.72l-.625-.648H66.92ZM51.44,85.608V81.1h1.2V75.911L48.272,83.16,43.9,75.911V81.1h1.2v4.513h-7.9V81.1h1.2V70.1h-1.2V65.615H43.64l4.632,7.728L52.9,65.615h6.431V70.1h-1.2V81.1h1.2v4.513ZM22.307,82.292V79.848h.651V73.895h-.651V71.464h6.709l1.729,1.729v7.371l-1.729,1.729Zm3.627-2.444h1.482l.351-.337V74.245l-.351-.351H25.934ZM17.94,82.292l-2.912-4.849v2.4h.65v2.444H11.4V79.848h.65V73.895H11.4V71.464h3.523L17.9,76.416V73.895h-.65V71.464h4.277v2.431h-.65v5.953h.65v2.444Zm-11.3,0V79.848h.351l-.156-.493H3.965l-.168.493h.351v2.444H0V79.848H.65l2.379-5.953H2.561V71.464H8.32v2.431H7.774l2.379,5.953h.65v2.444Zm-1.937-5H6.084l-.689-1.716ZM87.685,58.976V45.628h3.55V13.11h-3.55v3.55H74.336V-.167h49.984V16.66H111.044V13.11h-3.55V45.628h3.55V58.976Zm-40.967,0V45.628h3.55V13.11h-3.55V-.167H70.077V13.11h-3.55V45.628h3.55V58.976ZM0,58.976V45.628H3.55V13.11H0V-.167H43.523v15.62H30.175V13.11H19.809v9.655h2.414V20.423H35.5V38.386H22.223V36.043H19.809v9.585h6.816V58.976Z" transform="translate(0 0)"/></g></g></svg>