<svg xmlns="http://www.w3.org/2000/svg" width="23" height="23" viewBox="0 0 23 23"><defs><style>.a{fill:#feffff;opacity:0;}.b{fill:#fff;}</style></defs><g transform="translate(418 -7.194)"><rect class="a" width="23" height="23" transform="translate(-418 7.194)"/><g transform="translate(-418 7.955)"><path class="b" d="M23.588,9.67h-.63v6.924a1.875,1.875,0,0,1-1.886,2.053H8.743v.329a2.221,2.221,0,0,0,2.2,1.915h9.426l3.606,2.12-.523-2.12h.138A1.7,1.7,0,0,0,25.2,18.976V11.314A1.484,1.484,0,0,0,23.588,9.67Z" transform="translate(-2.202 -1.619)"/><path class="b" d="M17.029,3.24H2.71C1.45,3.24,0,4.359,0,5.438v8.678c0,.994,1.228,1.711,2.407,1.822L1.64,18.849l4.914-2.891H17.029c1.26,0,2.422-.764,2.422-1.842V5.438A2.473,2.473,0,0,0,17.029,3.24ZM4.894,10.566A1.294,1.294,0,1,1,6.188,9.272,1.293,1.293,0,0,1,4.894,10.566Zm4.831,0a1.294,1.294,0,1,1,1.294-1.294A1.293,1.293,0,0,1,9.726,10.566Zm4.832,0a1.294,1.294,0,1,1,1.294-1.294A1.294,1.294,0,0,1,14.558,10.566Z"/></g></g></svg>