<svg xmlns="http://www.w3.org/2000/svg" xmlns:xlink="http://www.w3.org/1999/xlink" width="23" height="23" viewBox="0 0 23 23"><defs><style>.a,.c{fill:#fff;}.a{opacity:0;}.b{clip-path:url(#a);}</style><clipPath id="a"><rect class="a" width="23" height="23" transform="translate(18731 -340)"/></clipPath></defs><g transform="translate(-18731 340)"><g class="b"><g transform="translate(18731 -340)"><path class="c" d="M22.42,20.065l-.557-1.943a.674.674,0,0,1,.084-.452A7.7,7.7,0,0,0,16.2,6.139a9,9,0,0,1,.54,3.078c0,.189-.007.377-.018.564h2.521a.686.686,0,0,1,.692.641.674.674,0,0,1-.673.706H16.535a8.971,8.971,0,0,1-.677,1.98h3.384a.686.686,0,0,1,.692.641.674.674,0,0,1-.673.706h-4.2a9.121,9.121,0,0,1-1.927,1.98h6.106a.686.686,0,0,1,.692.641.674.674,0,0,1-.673.706h-7.91a.67.67,0,0,1-.4-.131,8.966,8.966,0,0,1-1.969.515,7.693,7.693,0,0,0,10.208,2.256.673.673,0,0,1,.452-.083l1.943.557a.674.674,0,0,0,.834-.834Z"/><path class="c" d="M7.7,16.913a7.694,7.694,0,1,0-6.642-3.808.674.674,0,0,1,.084.452L.58,15.5a.674.674,0,0,0,.833.833l1.943-.557a.674.674,0,0,1,.452.084A7.689,7.689,0,0,0,7.7,16.913Zm0-2.736A.674.674,0,1,1,8.37,13.5.686.686,0,0,1,7.7,14.177ZM5.116,6.838A2.58,2.58,0,1,1,8.37,9.329v1.648a.674.674,0,1,1-1.348,0V8.744A.674.674,0,0,1,7.7,8.07,1.232,1.232,0,1,0,6.463,6.838a.674.674,0,0,1-1.348,0Z"/></g></g></g></svg>