<svg xmlns="http://www.w3.org/2000/svg" width="22.977" height="23" viewBox="0 0 22.977 23"><defs><style>.a,.b{fill:#fff;}.a{opacity:0;}</style></defs><g transform="translate(53.798 -143.007)"><rect class="a" width="22.977" height="23" transform="translate(-53.798 143.007)"/><g transform="translate(-53.799 143.008)"><g transform="translate(0 0)"><path class="b" d="M22.887,20.807,21.31,16.217a11.226,11.226,0,1,0-10.074,6.255h.018a11.27,11.27,0,0,0,4.963-1.163l4.591,1.577a1.649,1.649,0,0,0,.536.09,1.638,1.638,0,0,0,1.543-2.17ZM11.126,17.641a.681.681,0,1,1,.681-.681A.693.693,0,0,1,11.126,17.641Zm.681-5.2V14.6a.681.681,0,1,1-1.362,0V11.826a.681.681,0,0,1,.681-.681A2.027,2.027,0,1,0,9.1,9.118a.681.681,0,1,1-1.362,0,3.389,3.389,0,1,1,4.07,3.32Z" transform="translate(0 0)"/></g></g></g></svg>