<svg xmlns="http://www.w3.org/2000/svg" width="80" height="80" viewBox="0 0 80 80"><defs><style>.a,.b{fill:#bfbfbf;}.a{opacity:0;}</style></defs><rect class="a" width="80" height="80"/><g transform="translate(0 4)"><path class="b" d="M2.344,325.144H7.031A2.344,2.344,0,0,0,9.374,322.8V297.021H2.344A2.344,2.344,0,0,0,0,299.365V322.8A2.344,2.344,0,0,0,2.344,325.144Z" transform="translate(0 -254.837)"/><path class="b" d="M290.748,27.02A18.748,18.748,0,1,0,309.5,45.768,18.748,18.748,0,0,0,290.748,27.02ZM294.676,54.2a8.824,8.824,0,0,1-1.584.6v.648a2.344,2.344,0,0,1-4.687,0v-.574a7.451,7.451,0,0,1-2.656-1.236,2.344,2.344,0,0,1,2.812-3.75,4.229,4.229,0,0,0,4.019.116c.514-.257.791-.566.791-.727,0-.28,0-.324-.312-.49a11.128,11.128,0,0,0-2.738-.721,14.063,14.063,0,0,1-4.09-1.194,4.987,4.987,0,0,1-2.792-4.625,5.532,5.532,0,0,1,3.378-4.92,8.82,8.82,0,0,1,1.588-.607v-.644a2.344,2.344,0,0,1,4.687,0v.574a7.454,7.454,0,0,1,2.656,1.237,2.344,2.344,0,0,1-2.812,3.75,4.233,4.233,0,0,0-4.023-.117c-.517.258-.787.562-.787.728,0,.281,0,.324.312.49a11.13,11.13,0,0,0,2.738.721,14.065,14.065,0,0,1,4.09,1.194,4.987,4.987,0,0,1,2.792,4.625,5.534,5.534,0,0,1-3.382,4.919Z" transform="translate(-229.503 -27.02)"/><path class="b" d="M118.248,300.422h.516a43.468,43.468,0,0,0,22.076-6.359l13.077-9.14a4.681,4.681,0,1,0-5.343-7.687l-12.561,8.812a16.376,16.376,0,0,1-13.405,1.359l-14.452-4.781a2.329,2.329,0,0,1,1.359-4.452c.047,0,16.233,5.25,16.233,5.25a4.684,4.684,0,1,0,2.906-8.906L106.608,267.3A20.8,20.8,0,0,0,90,268.865V295.1l18.389,4.166a46.078,46.078,0,0,0,9.859,1.156Z" transform="translate(-75.939 -228.865)"/></g></svg>