<svg xmlns="http://www.w3.org/2000/svg" width="80.035" height="80" viewBox="0 0 80.035 80"><defs><style>.a,.b{fill:#bfbfbf;}.a{opacity:0;}</style></defs><rect class="a" width="80" height="80" transform="translate(0.035)"/><path class="b" d="M68.284,11.716A40,40,0,0,0,11.716,68.284,40,40,0,0,0,68.284,11.716ZM40,37.5a11.249,11.249,0,0,1,3.075,22.069.785.785,0,0,0-.575.753v2.107A2.546,2.546,0,0,1,40.121,65,2.5,2.5,0,0,1,37.5,62.5V60.322a.783.783,0,0,0-.573-.752A11.268,11.268,0,0,1,28.75,48.82a2.541,2.541,0,0,1,2.426-2.569,2.5,2.5,0,0,1,2.573,2.5A6.25,6.25,0,1,0,40,42.5a11.249,11.249,0,0,1-3.075-22.069.785.785,0,0,0,.575-.753V17.571A2.546,2.546,0,0,1,39.879,15,2.5,2.5,0,0,1,42.5,17.5v2.178a.783.783,0,0,0,.573.752A11.268,11.268,0,0,1,51.25,31.18a2.541,2.541,0,0,1-2.426,2.569,2.5,2.5,0,0,1-2.573-2.5A6.25,6.25,0,1,0,40,37.5Z" transform="translate(0 0)"/></svg>