<svg xmlns="http://www.w3.org/2000/svg" width="73.542" height="49.93" viewBox="0 0 73.542 49.93"><defs><style>.a{fill:#fff;}</style></defs><g transform="translate(-125 -15)"><g transform="translate(125.052 15.369)"><path class="a" d="M55.643,50.08V47.448h.7V41.035h-.7V38.417h8.582V41.5H61.593v-.462H59.549v1.9h.476v-.463h2.618V46.02H60.026v-.462h-.476v1.89h2.044v-.463h2.632V50.08Zm-4.732,0V45.725l-.378-.378h-1.6v2.1h.7V50.08H45.032V47.448h.7V41.035h-.7V38.417h7.224l1.862,1.862v2.982l-.77.77.77.77v2.646h.7V50.08Zm-1.974-7.35h1.6l.378-.378v-.938l-.378-.378h-1.6ZM37.121,50.08l-1.862-1.862V40.28l1.862-1.862H42.26l1.862,1.862v7.938L42.26,50.08Zm1.344-8.666v5.67l.378.365h1.708l.365-.365v-5.67l-.365-.378H38.843ZM29.813,50.08V47.448h.7V44.424l-2.548,4.227-2.548-4.227v3.024h.7V50.08H21.512V47.448h.7V41.035h-.7V38.417h3.752l2.7,4.508,2.7-4.508H34.42v2.618h-.7v6.413h.7V50.08ZM13.728,48.366v-1.5h.4V43.2h-.4V41.7h4.128l1.064,1.064V47.3l-1.064,1.064Zm2.232-1.5h.913l.216-.208v-3.24l-.216-.216H15.96Zm-4.919,1.5L9.248,45.382v1.48h.4v1.5H7.016v-1.5h.4V43.2h-.4V41.7H9.184l1.832,3.047V43.2h-.4V41.7h2.632v1.5h-.4v3.664h.4v1.5Zm-6.953,0v-1.5H4.3l-.1-.3H2.44l-.1.3h.216v1.5H0v-1.5H.4L1.864,43.2H1.576V41.7H5.12v1.5H4.784l1.464,3.664h.4v1.5ZM2.9,45.286h.848L3.32,44.23ZM51.87,35.135v-7.9h2.1V8h-2.1v2.1h-7.9V.149H73.542V10.1H65.688V8h-2.1V27.239h2.1v7.9Zm-24.233,0v-7.9h2.1V8h-2.1V.149H41.454V8h-2.1V27.239h2.1v7.9ZM0,35.135v-7.9H2.1V8H0V.149H25.746V9.39h-7.9V8H11.718v5.711h1.428V12.329H21V22.955H13.146V21.569H11.718v5.67H15.75v7.9Z" transform="translate(-0.052 -0.519)"/></g></g></svg>